<svg width="207" height="49" viewBox="0 0 207 49" fill="none" xmlns="http://www.w3.org/2000/svg">
<path d="M48.2136 24.25C48.2136 37.5048 37.4685 48.25 24.2136 48.25C10.9588 48.25 0.213623 37.5048 0.213623 24.25C0.213623 10.9952 10.9588 0.25 24.2136 0.25C37.4685 0.25 48.2136 10.9952 48.2136 24.25Z" fill="#B292FD"/>
<path d="M103.414 15.0066C117.416 -2.49336 130.414 17.5067 114.414 24.5066C129.414 34.0066 117.914 50.0067 103.414 34.0066C87.4156 50.5067 78.4158 32.0066 92.4139 24.5066C75.4163 11.5066 92.4138 -0.49338 103.414 15.0066Z" fill="black"/>
<path d="M206.787 24.25C206.787 37.5048 196.041 48.25 182.787 48.25C169.532 48.25 158.787 37.5048 158.787 24.25C158.787 10.9952 169.532 0.25 182.787 0.25C196.041 0.25 206.787 10.9952 206.787 24.25Z" fill="#7F00FF"/>
</svg>
