<svg width="124" height="399" viewBox="0 0 124 399" fill="none" xmlns="http://www.w3.org/2000/svg">
<circle cx="25" cy="24.5" r="23.5" stroke="black"/>
<path d="M104.2 15.2566C118.202 -2.24339 131.2 17.7566 115.2 24.7566C130.2 34.2565 118.7 50.2566 104.2 34.2565C88.202 50.7566 79.2021 32.2566 93.2003 24.7566C76.2027 11.7566 93.2002 -0.243408 104.2 15.2566Z" stroke="black" stroke-linecap="round"/>
<path d="M19.2004 85.2566C33.2022 67.7566 46.2003 87.7566 30.2003 94.7566C45.2003 104.257 33.7003 120.257 19.2003 104.257C3.202 120.757 -5.79787 102.257 8.20029 94.7566C-8.79729 81.7566 8.20022 69.7566 19.2004 85.2566Z" stroke="black" stroke-linecap="round"/>
<circle cx="98.573" cy="94.5" r="23.5" stroke="black"/>
<circle cx="25" cy="164.5" r="23.5" stroke="black"/>
<path d="M104.2 155.257C118.202 137.757 131.2 157.757 115.2 164.757C130.2 174.257 118.7 190.257 104.2 174.257C88.202 190.757 79.2021 172.257 93.2003 164.757C76.2027 151.757 93.2002 139.757 104.2 155.257Z" stroke="black" stroke-linecap="round"/>
<path d="M19.2004 225.257C33.2022 207.757 46.2003 227.757 30.2003 234.757C45.2003 244.257 33.7003 260.257 19.2003 244.257C3.202 260.757 -5.79787 242.257 8.20029 234.757C-8.79729 221.757 8.20022 209.757 19.2004 225.257Z" stroke="black" stroke-linecap="round"/>
<circle cx="98.573" cy="234.5" r="23.5" stroke="black"/>
<circle cx="25" cy="304.5" r="23.5" stroke="black"/>
<path d="M104.2 295.257C118.202 277.757 131.2 297.757 115.2 304.757C130.2 314.257 118.7 330.257 104.2 314.257C88.202 330.757 79.2021 312.257 93.2003 304.757C76.2027 291.757 93.2002 279.757 104.2 295.257Z" stroke="black" stroke-linecap="round"/>
<path d="M19.2004 365.257C33.2022 347.757 46.2003 367.757 30.2003 374.757C45.2003 384.257 33.7003 400.257 19.2003 384.257C3.202 400.757 -5.79787 382.257 8.20029 374.757C-8.79729 361.757 8.20022 349.757 19.2004 365.257Z" stroke="black" stroke-linecap="round"/>
<circle cx="98.573" cy="374.5" r="23.5" stroke="black"/>
</svg>
