<svg width="232" height="106" viewBox="0 0 232 106" fill="none" xmlns="http://www.w3.org/2000/svg">
<g id="Vector">
<path d="M228.786 53C228.786 80.6142 206.401 103 178.786 103C151.842 103 129.875 81.6871 128.826 55C128.8 54.3366 128.786 53.6698 128.786 53C128.786 25.3858 151.172 3 178.786 3C206.401 3 228.786 25.3858 228.786 53Z" fill="#7F00FF"/>
<path d="M29.2864 37.5C29.2864 35.8431 27.9432 34.5 26.2864 34.5C24.6295 34.5 23.2864 35.8431 23.2864 37.5H29.2864ZM38.7864 59.5C40.4432 59.5 41.7864 58.1569 41.7864 56.5C41.7864 54.8431 40.4432 53.5 38.7864 53.5V59.5ZM55.7864 52C54.1295 52 52.7864 53.3431 52.7864 55C52.7864 56.6569 54.1295 58 55.7864 58V52ZM204.408 57.1213C205.579 55.9497 205.579 54.0503 204.408 52.8787L185.316 33.7868C184.144 32.6152 182.245 32.6152 181.073 33.7868C179.902 34.9584 179.902 36.8579 181.073 38.0294L198.044 55L181.073 71.9706C179.902 73.1421 179.902 75.0416 181.073 76.2132C182.245 77.3848 184.144 77.3848 185.316 76.2132L204.408 57.1213ZM11.7864 33H44.7864V27H11.7864V33ZM49.7864 38V71.5H55.7864V38H49.7864ZM44.7864 76.5H11.7864V82.5H44.7864V76.5ZM23.2864 37.5V55.5H29.2864V37.5H23.2864ZM27.2864 59.5H38.7864V53.5H27.2864V59.5ZM11.7864 76.5C9.02495 76.5 6.78638 74.2614 6.78638 71.5H0.786377C0.786377 77.5751 5.71124 82.5 11.7864 82.5V76.5ZM49.7864 71.5C49.7864 74.2614 47.5478 76.5 44.7864 76.5V82.5C50.8615 82.5 55.7864 77.5751 55.7864 71.5H49.7864ZM44.7864 33C47.5478 33 49.7864 35.2386 49.7864 38H55.7864C55.7864 31.9249 50.8615 27 44.7864 27V33ZM23.2864 55.5C23.2864 57.7091 25.0772 59.5 27.2864 59.5V53.5C28.3909 53.5 29.2864 54.3954 29.2864 55.5H23.2864ZM6.78638 38C6.78638 35.2386 9.02495 33 11.7864 33V27C5.71124 27 0.786377 31.9249 0.786377 38H6.78638ZM6.78638 71.5V38H0.786377V71.5H6.78638ZM225.786 53C225.786 78.9574 204.744 100 178.786 100V106C208.057 106 231.786 82.2711 231.786 53H225.786ZM131.786 53C131.786 27.0426 152.829 6 178.786 6V0C149.515 0 125.786 23.7289 125.786 53H131.786ZM178.786 6C204.744 6 225.786 27.0426 225.786 53H231.786C231.786 23.7289 208.057 0 178.786 0V6ZM178.786 100C153.459 100 132.81 79.9658 131.823 54.8821L125.828 55.1179C126.941 83.4083 150.225 106 178.786 106V100ZM131.823 54.8821C131.799 54.2579 131.786 53.6305 131.786 53H125.786C125.786 53.7091 125.8 54.4152 125.828 55.1179L131.823 54.8821ZM55.7864 58H128.826V52H55.7864V58ZM128.826 58H202.286V52H128.826V58Z" fill="black"/>
</g>
</svg>
