<svg width="110" height="70" viewBox="0 0 110 70" fill="none" xmlns="http://www.w3.org/2000/svg">
<path id="Vector 6665" d="M102.721 4.03228C102.325 1.85899 100.242 0.418531 98.0687 0.814917L62.6529 7.27439C60.4796 7.67078 59.0392 9.75391 59.4355 11.9272C59.8319 14.1005 61.9151 15.5409 64.0883 15.1446L95.569 9.4028L101.311 40.8835C101.707 43.0568 103.79 44.4972 105.964 44.1008C108.137 43.7044 109.577 41.6213 109.181 39.448L102.721 4.03228ZM71.6545 43.9869L68.3645 41.7118L71.6545 43.9869ZM6.90524 69.7545L27.911 43.5964L21.6733 38.5873L0.667517 64.7455L6.90524 69.7545ZM36.4294 41.6838L56.049 51.2211L59.5466 44.0261L39.9269 34.4888L36.4294 41.6838ZM74.9445 46.2619L102.076 7.02502L95.4963 2.47498L68.3645 41.7118L74.9445 46.2619ZM56.049 51.2211C62.7082 54.4582 70.7333 52.352 74.9445 46.2619L68.3645 41.7118C66.3992 44.5539 62.6542 45.5368 59.5466 44.0261L56.049 51.2211ZM27.911 43.5964C29.9564 41.0493 33.4915 40.2556 36.4294 41.6838L39.9269 34.4888C33.6314 31.4285 26.0562 33.1294 21.6733 38.5873L27.911 43.5964Z" fill="black"/>
</svg>
