<svg width="209" height="57" viewBox="0 0 209 57" fill="none" xmlns="http://www.w3.org/2000/svg">
<g id="Group 1">
<path id="Vector 3" d="M149.489 52.881V3.5H190.774C200.489 3.5 200.489 30.2143 190.774 30.2143H155.965V31.8333H198.06C207.774 31.8333 207.774 52.881 198.06 52.881H149.489Z" stroke="white" stroke-width="7"/>
<path id="Vector 2" d="M81.6082 27.5399C81.5906 28.3682 82.2478 29.0539 83.076 29.0715L96.5729 29.3587C97.4012 29.3763 98.0869 28.7192 98.1045 27.8909C98.1221 27.0627 97.465 26.377 96.6368 26.3594L84.6395 26.1041L84.8947 14.1068C84.9124 13.2786 84.2552 12.5929 83.427 12.5752C82.5987 12.5576 81.913 13.2148 81.8954 14.043L81.6082 27.5399ZM102.536 8.9528L101.636 7.75281L101.564 7.80715L101.499 7.86982L102.536 8.9528ZM115.489 24.3338L116.588 25.3544L116.591 25.3512L115.489 24.3338ZM104.965 35.6671L105.915 36.828L105.994 36.763L106.064 36.6878L104.965 35.6671ZM117.917 50.2385L118.867 51.3995L118.901 51.3719L118.933 51.3424L117.917 50.2385ZM139.654 31.6819C139.689 30.8542 139.046 30.1553 138.218 30.1208L124.73 29.5588C123.902 29.5243 123.203 30.1673 123.169 30.995C123.134 31.8227 123.777 32.5217 124.605 32.5562L136.594 33.0557L136.095 45.0453C136.06 45.873 136.703 46.572 137.531 46.6065C138.359 46.641 139.058 45.9979 139.092 45.1702L139.654 31.6819ZM84.1458 28.6548L103.574 10.0358L101.499 7.86982L82.0701 26.4889L84.1458 28.6548ZM103.436 10.1528C107.623 7.01245 112.439 8.0528 115.206 10.9926C116.587 12.4599 117.429 14.377 117.429 16.4661C117.429 18.5416 116.597 20.9218 114.387 23.3163L116.591 25.3512C119.238 22.4837 120.429 19.3996 120.429 16.4661C120.429 13.5462 119.248 10.9098 117.391 8.93653C113.681 4.99539 107.164 3.60722 101.636 7.75281L103.436 10.1528ZM114.39 23.3131L103.866 34.6464L106.064 36.6878L116.588 25.3544L114.39 23.3131ZM104.015 34.5061C101.419 36.6302 100.359 39.3637 100.481 42.1086C100.601 44.7956 101.842 47.3888 103.642 49.4135C105.443 51.4404 107.898 53.0039 110.597 53.5319C113.338 54.0682 116.276 53.5193 118.867 51.3995L116.968 49.0776C115.106 50.6004 113.087 50.9622 111.173 50.5877C109.216 50.2049 107.32 49.0363 105.884 47.4204C104.445 45.8021 103.561 43.8419 103.478 41.9753C103.398 40.1667 104.059 38.3467 105.915 36.828L104.015 34.5061ZM118.933 51.3424L139.171 32.7234L137.14 30.5156L116.902 49.1346L118.933 51.3424Z" fill="white"/>
<path id="Vector 1" d="M31.2983 54.5L0.536377 5.11905V3.5H13.4888L38.584 45.5952H41.8221L65.2983 3.5H79.0602V5.11905L49.1078 54.5H31.2983Z" fill="white"/>
</g>
</svg>
