<svg width="130" height="35" viewBox="0 0 130 35" fill="none" xmlns="http://www.w3.org/2000/svg">
<g id="Group 1">
<path id="Vector 3" d="M92.75 32.75V2.25H118.25C124.25 2.25 124.25 18.75 118.25 18.75H96.75V19.75H122.75C128.75 19.75 128.75 32.75 122.75 32.75H92.75Z" stroke="black" stroke-width="4"/>
<path id="Vector 2" d="M50.7502 17.0967C50.7385 17.6488 51.1766 18.106 51.7287 18.1177L60.7267 18.3092C61.2789 18.3209 61.736 17.8828 61.7477 17.3307C61.7595 16.7785 61.3214 16.3214 60.7692 16.3096L52.771 16.1394L52.9412 8.14125C52.953 7.58909 52.5149 7.13195 51.9627 7.1202C51.4106 7.10846 50.9534 7.54655 50.9417 8.09871L50.7502 17.0967ZM63.75 5.61794L63.15 4.81795L63.1017 4.85418L63.0581 4.89595L63.75 5.61794ZM71.75 15.1179L72.4828 15.7984L72.4848 15.7962L71.75 15.1179ZM65.25 22.1179L65.8832 22.8919L65.9362 22.8486L65.9828 22.7984L65.25 22.1179ZM73.25 31.1179L73.8832 31.8919L73.9057 31.8735L73.9271 31.8539L73.25 31.1179ZM86.7491 19.6596C86.7721 19.1078 86.3434 18.6418 85.7916 18.6188L76.7994 18.2441C76.2476 18.2211 75.7817 18.6498 75.7587 19.2016C75.7357 19.7534 76.1644 20.2194 76.7162 20.2424L84.7092 20.5754L84.3762 28.5685C84.3532 29.1203 84.7819 29.5863 85.3337 29.6093C85.8855 29.6323 86.3515 29.2036 86.3745 28.6518L86.7491 19.6596ZM52.4419 17.8399L64.4419 6.33993L63.0581 4.89595L51.0581 16.396L52.4419 17.8399ZM64.35 6.41793C66.9032 4.50295 69.8359 5.137 71.5218 6.92823C72.3631 7.82207 72.875 8.98858 72.875 10.2585C72.875 11.5194 72.3697 12.9723 71.0152 14.4397L72.4848 15.7962C74.1303 14.0136 74.875 12.0914 74.875 10.2585C74.875 8.43468 74.1369 6.78867 72.9782 5.5575C70.6641 3.09872 66.5968 2.2328 63.15 4.81795L64.35 6.41793ZM71.0172 14.4375L64.5172 21.4375L65.9828 22.7984L72.4828 15.7984L71.0172 14.4375ZM64.6168 21.344C62.9951 22.6707 62.3309 24.3814 62.4072 26.0998C62.4819 27.7795 63.2572 29.3967 64.3776 30.6572C65.4994 31.9192 67.0294 32.8946 68.7142 33.2242C70.4274 33.5595 72.265 33.2159 73.8832 31.8919L72.6168 30.344C71.485 31.2699 70.2601 31.4888 69.0983 31.2615C67.9081 31.0286 66.7506 30.3165 65.8724 29.3285C64.9928 28.3389 64.4556 27.1437 64.4053 26.011C64.3566 24.9168 64.7549 23.8151 65.8832 22.8919L64.6168 21.344ZM73.9271 31.8539L86.4271 20.3539L85.0729 18.882L72.5729 30.382L73.9271 31.8539Z" fill="black"/>
<path id="Vector 1" d="M19.75 33.75L0.75 3.25V2.25H8.75L24.25 28.25H26.25L40.75 2.25H49.25V3.25L30.75 33.75H19.75Z" fill="black"/>
</g>
</svg>
