<svg width="33" height="31" viewBox="0 0 33 31" fill="none" xmlns="http://www.w3.org/2000/svg">
<path id="Vector" d="M25.0425 8.10526C25.5948 8.10526 26.0425 7.65755 26.0425 7.10526C26.0425 6.55298 25.5948 6.10526 25.0425 6.10526V8.10526ZM25.0283 6.10526C24.476 6.10526 24.0283 6.55298 24.0283 7.10526C24.0283 7.65755 24.476 8.10526 25.0283 8.10526V6.10526ZM16.3459 29C12.7831 29 10.2082 28.998 8.24529 28.7429C6.30778 28.4911 5.11809 28.0086 4.23767 27.1575L2.84762 28.5955C4.1639 29.8679 5.84033 30.4472 7.98753 30.7262C10.1093 31.002 12.8378 31 16.3459 31V29ZM0.345947 15.5C0.345947 18.8885 0.343678 21.5338 0.630069 23.593C0.920958 25.6845 1.52661 27.3185 2.84762 28.5955L4.23767 27.1575C3.36199 26.311 2.86929 25.1745 2.611 23.3175C2.34822 21.4281 2.34595 18.9469 2.34595 15.5H0.345947ZM30.3459 15.5C30.3459 18.9469 30.3437 21.4281 30.0809 23.3175C29.8226 25.1745 29.3299 26.311 28.4542 27.1575L29.8443 28.5955C31.1653 27.3185 31.7709 25.6845 32.0618 23.593C32.3482 21.5338 32.3459 18.8885 32.3459 15.5H30.3459ZM16.3459 31C19.8541 31 22.5826 31.002 24.7044 30.7262C26.8516 30.4472 28.528 29.8679 29.8443 28.5955L28.4542 27.1575C27.5738 28.0086 26.3841 28.4911 24.4466 28.7429C22.4837 28.998 19.9088 29 16.3459 29V31ZM16.3459 2C19.9088 2 22.4837 2.00199 24.4466 2.25709C26.3841 2.5089 27.5738 2.99139 28.4542 3.84246L29.8443 2.40449C28.528 1.13209 26.8516 0.552835 24.7044 0.273774C22.5826 -0.00198686 19.8541 0 16.3459 0V2ZM32.3459 15.5C32.3459 12.1115 32.3482 9.46617 32.0618 7.40702C31.7709 5.31554 31.1653 3.68147 29.8443 2.40449L28.4542 3.84246C29.3299 4.68895 29.8226 5.82547 30.0809 7.68254C30.3437 9.57194 30.3459 12.0531 30.3459 15.5H32.3459ZM16.3459 0C12.8378 0 10.1093 -0.00198686 7.98753 0.273774C5.84033 0.552835 4.1639 1.13209 2.84762 2.40449L4.23767 3.84246C5.11809 2.99139 6.30778 2.5089 8.24529 2.25709C10.2082 2.00199 12.7831 2 16.3459 2V0ZM2.34595 15.5C2.34595 12.0531 2.34822 9.57194 2.611 7.68254C2.86929 5.82547 3.36199 4.68895 4.23767 3.84246L2.84762 2.40449C1.52661 3.68147 0.920958 5.31554 0.630069 7.40702C0.343678 9.46617 0.345947 12.1115 0.345947 15.5H2.34595ZM22.4512 15.5C22.4512 18.7094 19.75 21.3684 16.3459 21.3684V23.3684C20.7901 23.3684 24.4512 19.8773 24.4512 15.5H22.4512ZM16.3459 21.3684C12.9419 21.3684 10.2407 18.7094 10.2407 15.5H8.24068C8.24068 19.8773 11.9018 23.3684 16.3459 23.3684V21.3684ZM10.2407 15.5C10.2407 12.2906 12.9419 9.63158 16.3459 9.63158V7.63158C11.9018 7.63158 8.24068 11.1227 8.24068 15.5H10.2407ZM16.3459 9.63158C19.75 9.63158 22.4512 12.2906 22.4512 15.5H24.4512C24.4512 11.1227 20.7901 7.63158 16.3459 7.63158V9.63158ZM25.0425 6.10526H25.0283V8.10526H25.0425V6.10526Z" fill="white"/>
</svg>
