<svg width="32" height="31" viewBox="0 0 32 31" fill="none" xmlns="http://www.w3.org/2000/svg">
<path id="Vector" d="M9.21437 12.4474C9.21437 11.8951 8.76665 11.4474 8.21437 11.4474C7.66208 11.4474 7.21437 11.8951 7.21437 12.4474H9.21437ZM7.21437 23.1316C7.21437 23.6839 7.66208 24.1316 8.21437 24.1316C8.76665 24.1316 9.21437 23.6839 9.21437 23.1316H7.21437ZM13.3196 23.1316C13.3196 23.6839 13.7673 24.1316 14.3196 24.1316C14.8719 24.1316 15.3196 23.6839 15.3196 23.1316H13.3196ZM22.4775 23.1316C22.4775 23.6839 22.9252 24.1316 23.4775 24.1316C24.0298 24.1316 24.4775 23.6839 24.4775 23.1316H22.4775ZM15.3196 12.4474C15.3196 11.8951 14.8719 11.4474 14.3196 11.4474C13.7673 11.4474 13.3196 11.8951 13.3196 12.4474H15.3196ZM8.22659 8.86842C8.77887 8.86842 9.22659 8.42071 9.22659 7.86842C9.22659 7.31614 8.77887 6.86842 8.22659 6.86842V8.86842ZM8.21288 6.86842C7.66059 6.86842 7.21288 7.31614 7.21288 7.86842C7.21288 8.42071 7.66059 8.86842 8.21288 8.86842V6.86842ZM7.21437 12.4474V23.1316H9.21437V12.4474H7.21437ZM13.3196 17.0263V23.1316H15.3196V17.0263H13.3196ZM22.4775 17.0263V23.1316H24.4775V17.0263H22.4775ZM24.4775 17.0263C24.4775 13.9451 21.9797 11.4474 18.8986 11.4474V13.4474C20.8752 13.4474 22.4775 15.0497 22.4775 17.0263H24.4775ZM15.3196 17.0263C15.3196 15.0497 16.922 13.4474 18.8986 13.4474V11.4474C15.8174 11.4474 13.3196 13.9451 13.3196 17.0263H15.3196ZM15.3196 17.0263V12.4474H13.3196V17.0263H15.3196ZM8.22659 6.86842H8.21288V8.86842H8.22659V6.86842ZM15.8459 29C12.4 29 9.91613 28.9979 8.02397 28.7435C6.16059 28.493 5.0215 28.0144 4.17653 27.1694L2.76232 28.5836C4.04082 29.8621 5.67231 30.4453 7.75748 30.7256C9.81388 31.0021 12.4565 31 15.8459 31V29ZM0.345947 15.5C0.345947 18.8894 0.343824 21.5321 0.620299 23.5885C0.900642 25.6736 1.48381 27.3051 2.76232 28.5836L4.17653 27.1694C3.33156 26.3244 2.85299 25.1854 2.60246 23.322C2.34807 21.4298 2.34595 18.946 2.34595 15.5H0.345947ZM29.3459 15.5C29.3459 18.946 29.3438 21.4298 29.0894 23.322C28.8389 25.1854 28.3603 26.3244 27.5154 27.1694L28.9296 28.5836C30.2081 27.3051 30.7913 25.6736 31.0716 23.5885C31.3481 21.5321 31.3459 18.8894 31.3459 15.5H29.3459ZM15.8459 31C19.2354 31 21.878 31.0021 23.9344 30.7256C26.0196 30.4453 27.6511 29.8621 28.9296 28.5836L27.5154 27.1694C26.6704 28.0144 25.5313 28.493 23.6679 28.7435C21.7758 28.9979 19.2919 29 15.8459 29V31ZM15.8459 2C19.2919 2 21.7758 2.00212 23.6679 2.25652C25.5313 2.50704 26.6704 2.98561 27.5154 3.83058L28.9296 2.41637C27.6511 1.13786 26.0196 0.554695 23.9344 0.274352C21.878 -0.00212371 19.2354 0 15.8459 0V2ZM31.3459 15.5C31.3459 12.1106 31.3481 9.46793 31.0716 7.41153C30.7913 5.32637 30.2081 3.69488 28.9296 2.41637L27.5154 3.83058C28.3603 4.67555 28.8389 5.81464 29.0894 7.67803C29.3438 9.57018 29.3459 12.054 29.3459 15.5H31.3459ZM15.8459 0C12.4565 0 9.81388 -0.00212371 7.75748 0.274352C5.67231 0.554695 4.04082 1.13786 2.76232 2.41637L4.17653 3.83058C5.0215 2.98561 6.16059 2.50704 8.02397 2.25652C9.91613 2.00212 12.4 2 15.8459 2V0ZM2.34595 15.5C2.34595 12.054 2.34807 9.57018 2.60246 7.67803C2.85299 5.81464 3.33156 4.67555 4.17653 3.83058L2.76232 2.41637C1.48381 3.69488 0.900642 5.32637 0.620299 7.41153C0.343824 9.46793 0.345947 12.1106 0.345947 15.5H2.34595Z" fill="white"/>
</svg>
