<svg width="37" height="31" viewBox="0 0 37 31" fill="none" xmlns="http://www.w3.org/2000/svg">
<path id="Vector" d="M27.1959 29.1358L27.3957 30.1156L27.1959 29.1358ZM9.6136 29.1358L9.41387 30.1156L9.6136 29.1358ZM27.1959 1.86424L27.3957 0.88439L27.1959 1.86424ZM9.6136 1.86424L9.41387 0.88439V0.88439L9.6136 1.86424ZM33.9 4.92246L33.1106 5.5364L33.9 4.92246ZM2.90956 4.92246L2.12021 4.30852H2.12021L2.90956 4.92246ZM20.8695 19.294L20.3869 18.4182V18.4182L20.8695 19.294ZM25.1637 16.0337L26.135 16.2716V16.2716L25.1637 16.0337ZM20.8695 11.706L21.3521 10.8302L20.8695 11.706ZM25.1637 14.9663L26.135 14.7284V14.7284L25.1637 14.9663ZM14.2049 20.863L13.5762 21.6406H13.5762L14.2049 20.863ZM15.2878 21.4049L15.5413 20.4375H15.5413L15.2878 21.4049ZM14.2049 10.137L13.5762 9.35936H13.5762L14.2049 10.137ZM15.2878 9.59515L15.0343 8.62782L15.2878 9.59515ZM26.9962 28.1559C24.3201 28.7014 21.4267 29 18.4048 29V31C21.5571 31 24.5845 30.6887 27.3957 30.1156L26.9962 28.1559ZM9.41387 30.1156C12.225 30.6887 15.2524 31 18.4048 31V29C15.3829 29 12.4894 28.7014 9.81334 28.1559L9.41387 30.1156ZM27.3957 0.88439C24.5845 0.311351 21.5571 0 18.4048 0V2C21.4267 2 24.3201 2.29858 26.9962 2.84409L27.3957 0.88439ZM9.81334 2.84409C12.4894 2.29858 15.3829 2 18.4048 2V0C15.2524 0 12.225 0.311351 9.41387 0.88439L9.81334 2.84409ZM34.4636 13.8563V17.1437H36.4636V13.8563H34.4636ZM0.345947 13.8563V17.1437H2.34595V13.8563H0.345947ZM26.9962 2.84409C30.4807 3.55439 31.8076 3.86105 33.1106 5.5364L34.6893 4.30852C32.8651 1.96312 30.765 1.57121 27.3957 0.88439L26.9962 2.84409ZM36.4636 13.8563C36.4636 9.36345 36.5084 6.64732 34.6893 4.30852L33.1106 5.5364C34.4188 7.21836 34.4636 9.11786 34.4636 13.8563H36.4636ZM9.81334 28.1559C6.3288 27.4456 5.00196 27.139 3.69892 25.4636L2.12021 26.6915C3.9444 29.0369 6.04451 29.4288 9.41387 30.1156L9.81334 28.1559ZM0.345947 17.1437C0.345947 21.6365 0.301159 24.3527 2.12021 26.6915L3.69892 25.4636C2.39074 23.7816 2.34595 21.8821 2.34595 17.1437H0.345947ZM9.41387 0.88439C6.04451 1.57121 3.9444 1.96312 2.12021 4.30852L3.69892 5.5364C5.00196 3.86105 6.3288 3.55439 9.81334 2.84409L9.41387 0.88439ZM2.34595 13.8563C2.34595 9.11786 2.39074 7.21836 3.69892 5.5364L2.12021 4.30852C0.301159 6.64732 0.345947 9.36345 0.345947 13.8563H2.34595ZM27.3957 30.1156C30.765 29.4288 32.8651 29.0369 34.6893 26.6915L33.1106 25.4636C31.8076 27.139 30.4807 27.4456 26.9962 28.1559L27.3957 30.1156ZM34.4636 17.1437C34.4636 21.8821 34.4188 23.7816 33.1106 25.4636L34.6893 26.6915C36.5084 24.3527 36.4636 21.6365 36.4636 17.1437H34.4636ZM21.3521 20.1698C22.677 19.4398 23.7479 18.8515 24.5106 18.3103C25.2636 17.7761 25.9192 17.1525 26.135 16.2716L24.1924 15.7958C24.155 15.9485 24.0106 16.2128 23.3533 16.6792C22.7057 17.1386 21.7561 17.6637 20.3869 18.4182L21.3521 20.1698ZM20.3869 12.5818C21.7561 13.3363 22.7057 13.8614 23.3533 14.3208C24.0106 14.7872 24.155 15.0515 24.1924 15.2042L26.135 14.7284C25.9192 13.8475 25.2636 13.2239 24.5106 12.6897C23.7479 12.1485 22.677 11.5602 21.3521 10.8302L20.3869 12.5818ZM26.135 16.2716C26.2594 15.7637 26.2594 15.2363 26.135 14.7284L24.1924 15.2042C24.2403 15.3995 24.2403 15.6005 24.1924 15.7958L26.135 16.2716ZM12.2871 15.5C12.2871 17.011 12.285 18.2458 12.4106 19.1903C12.5374 20.1445 12.8196 21.0289 13.5762 21.6406L14.8336 20.0853C14.6724 19.9551 14.4957 19.6984 14.3931 18.9267C14.2892 18.1453 14.2871 17.0696 14.2871 15.5H12.2871ZM20.3869 18.4182C18.9006 19.2372 17.8594 19.8092 17.0423 20.1476C16.2244 20.4863 15.8139 20.509 15.5413 20.4375L15.0343 22.3722C15.9483 22.6118 16.8637 22.3863 17.8075 21.9954C18.7521 21.6043 19.9084 20.9654 21.3521 20.1698L20.3869 18.4182ZM13.5762 21.6406C14.0016 21.9846 14.5008 22.2324 15.0343 22.3722L15.5413 20.4375C15.2709 20.3667 15.0298 20.244 14.8336 20.0853L13.5762 21.6406ZM14.2871 15.5C14.2871 13.9304 14.2892 12.8547 14.3931 12.0733C14.4957 11.3016 14.6724 11.0449 14.8336 10.9147L13.5762 9.35936C12.8196 9.97106 12.5374 10.8555 12.4106 11.8097C12.285 12.7542 12.2871 13.989 12.2871 15.5H14.2871ZM21.3521 10.8302C19.9084 10.0346 18.7521 9.39572 17.8075 9.00456C16.8637 8.61373 15.9483 8.38824 15.0343 8.62782L15.5413 10.5625C15.8139 10.491 16.2244 10.5137 17.0423 10.8524C17.8594 11.1908 18.9006 11.7628 20.3869 12.5818L21.3521 10.8302ZM14.8336 10.9147C15.0298 10.756 15.2709 10.6333 15.5413 10.5625L15.0343 8.62782C14.5008 8.76764 14.0016 9.01543 13.5762 9.35936L14.8336 10.9147Z" fill="white"/>
</svg>
